<?xml version="1.0" encoding="UTF-8"?>
<svg xmlns="http://www.w3.org/2000/svg" xmlns:xlink="http://www.w3.org/1999/xlink" width="375pt" height="374.999991pt" viewBox="0 0 375 374.999991" version="1.2">
<g id="surface1">
<path style=" stroke:none;fill-rule:nonzero;fill:rgb(100%,100%,100%);fill-opacity:1;" d="M 131.027344 174.28125 L 244.195312 174.28125 L 244.195312 300.933594 L 131.027344 300.933594 Z M 131.027344 174.28125 "/>
<path style=" stroke:none;fill-rule:nonzero;fill:rgb(100%,100%,100%);fill-opacity:1;" d="M 187.5 112.277344 C 185.652344 112.277344 183.804688 112.371094 181.964844 112.550781 C 180.125 112.730469 178.296875 113.003906 176.484375 113.363281 C 174.667969 113.726562 172.878906 114.171875 171.105469 114.710938 C 169.335938 115.246094 167.597656 115.871094 165.890625 116.578125 C 164.179688 117.285156 162.511719 118.074219 160.878906 118.945312 C 159.25 119.820312 157.664062 120.769531 156.125 121.796875 C 154.589844 122.824219 153.105469 123.925781 151.675781 125.097656 C 150.246094 126.269531 148.875 127.511719 147.570312 128.820312 C 146.261719 130.125 145.019531 131.496094 143.847656 132.925781 C 142.675781 134.355469 141.574219 135.839844 140.546875 137.375 C 139.519531 138.914062 138.570312 140.5 137.695312 142.128906 C 136.824219 143.761719 136.035156 145.429688 135.328125 147.140625 C 134.621094 148.847656 133.996094 150.585938 133.460938 152.355469 C 132.921875 154.128906 132.476562 155.917969 132.113281 157.734375 C 131.753906 159.546875 131.480469 161.375 131.300781 163.214844 C 131.121094 165.054688 131.027344 166.902344 131.027344 168.75 C 131.027344 170.597656 131.121094 172.445312 131.300781 174.285156 C 131.480469 176.125 131.753906 177.953125 132.113281 179.765625 C 132.476562 181.582031 132.921875 183.371094 133.460938 185.144531 C 133.996094 186.914062 134.621094 188.652344 135.328125 190.359375 C 136.035156 192.070312 136.824219 193.738281 137.695312 195.371094 C 138.570312 197 139.519531 198.585938 140.546875 200.125 C 141.574219 201.660156 142.675781 203.144531 143.847656 204.574219 C 145.019531 206.003906 146.261719 207.375 147.570312 208.679688 C 148.875 209.988281 150.246094 211.230469 151.675781 212.402344 C 153.105469 213.574219 154.589844 214.675781 156.125 215.703125 C 157.664062 216.730469 159.25 217.679688 160.878906 218.554688 C 162.511719 219.425781 164.179688 220.214844 165.890625 220.921875 C 167.597656 221.628906 169.335938 222.253906 171.105469 222.789062 C 172.878906 223.328125 174.667969 223.773438 176.484375 224.136719 C 178.296875 224.496094 180.125 224.769531 181.964844 224.949219 C 183.804688 225.128906 185.652344 225.222656 187.5 225.222656 C 189.347656 225.222656 191.195312 225.128906 193.035156 224.949219 C 194.875 224.769531 196.703125 224.496094 198.515625 224.136719 C 200.332031 223.773438 202.121094 223.328125 203.894531 222.789062 C 205.664062 222.253906 207.402344 221.628906 209.109375 220.921875 C 210.820312 220.214844 212.488281 219.425781 214.121094 218.554688 C 215.75 217.679688 217.335938 216.730469 218.875 215.703125 C 220.410156 214.675781 221.894531 213.574219 223.324219 212.402344 C 224.753906 211.230469 226.125 209.988281 227.429688 208.679688 C 228.738281 207.375 229.980469 206.003906 231.152344 204.574219 C 232.324219 203.144531 233.425781 201.660156 234.453125 200.125 C 235.480469 198.585938 236.429688 197 237.304688 195.371094 C 238.175781 193.738281 238.964844 192.070312 239.671875 190.359375 C 240.378906 188.652344 241.003906 186.914062 241.539062 185.144531 C 242.078125 183.371094 242.523438 181.582031 242.886719 179.765625 C 243.246094 177.953125 243.519531 176.125 243.699219 174.285156 C 243.878906 172.445312 243.972656 170.597656 243.972656 168.75 C 243.972656 166.902344 243.878906 165.054688 243.699219 163.214844 C 243.519531 161.375 243.246094 159.546875 242.886719 157.734375 C 242.523438 155.917969 242.078125 154.128906 241.539062 152.355469 C 241.003906 150.585938 240.378906 148.847656 239.671875 147.140625 C 238.964844 145.429688 238.175781 143.761719 237.304688 142.128906 C 236.429688 140.5 235.480469 138.914062 234.453125 137.375 C 233.425781 135.839844 232.324219 134.355469 231.152344 132.925781 C 229.980469 131.496094 228.738281 130.125 227.429688 128.820312 C 226.125 127.511719 224.753906 126.269531 223.324219 125.097656 C 221.894531 123.925781 220.410156 122.824219 218.875 121.796875 C 217.335938 120.769531 215.75 119.820312 214.121094 118.945312 C 212.488281 118.074219 210.820312 117.285156 209.109375 116.578125 C 207.402344 115.871094 205.664062 115.246094 203.894531 114.710938 C 202.121094 114.171875 200.332031 113.726562 198.515625 113.363281 C 196.703125 113.003906 194.875 112.730469 193.035156 112.550781 C 191.195312 112.371094 189.347656 112.277344 187.5 112.277344 Z M 187.5 112.277344 "/>
<path style=" stroke:none;fill-rule:nonzero;fill:rgb(100%,100%,100%);fill-opacity:1;" d="M 160.214844 84.992188 L 214.722656 84.992188 L 214.722656 119.289062 L 160.214844 119.289062 Z M 160.214844 84.992188 "/>
<path style=" stroke:none;fill-rule:nonzero;fill:rgb(100%,34.118652%,34.118652%);fill-opacity:1;" d="M 266.839844 126.429688 L 278.964844 143.457031 L 108.160156 265.105469 L 96.03125 248.082031 Z M 266.839844 126.429688 "/>
</g>
</svg>
